<mxfile host="app.diagrams.net" modified="2023-04-02T16:58:54.408Z" agent="5.0 (Windows NT 10.0; Win64; x64) AppleWebKit/537.36 (KHTML, like Gecko) Chrome/111.0.0.0 Safari/537.36 Edg/111.0.1661.62" etag="whSSwt-XWIxx_CqkTrta" version="20.0.1" type="github">
  <diagram id="j_V9gIIvFoNde2joBo6y" name="第 1 页">
    <mxGraphModel dx="1037" dy="588" grid="0" gridSize="10" guides="1" tooltips="1" connect="1" arrows="1" fold="1" page="1" pageScale="1" pageWidth="827" pageHeight="1169" math="0" shadow="0">
      <root>
        <mxCell id="0" />
        <mxCell id="1" parent="0" />
        <mxCell id="rpgWPX5AMUhFum32eu06-1" value="&lt;div&gt;被测物体场域&lt;/div&gt;&lt;div&gt;模型&lt;/div&gt;" style="rounded=1;whiteSpace=wrap;html=1;" vertex="1" parent="1">
          <mxGeometry x="343" y="299" width="120" height="60" as="geometry" />
        </mxCell>
        <mxCell id="rpgWPX5AMUhFum32eu06-2" value="&lt;div&gt;边界电极上测得&lt;span style=&quot;background-color: initial;&quot;&gt;的电位（或电压）&lt;/span&gt;&lt;/div&gt;" style="rounded=0;whiteSpace=wrap;html=1;" vertex="1" parent="1">
          <mxGeometry x="153" y="299.01" width="120" height="60" as="geometry" />
        </mxCell>
        <mxCell id="rpgWPX5AMUhFum32eu06-3" value="&lt;div&gt;物体内部电阻抗&lt;/div&gt;&lt;div&gt;分布情况&amp;nbsp;&lt;/div&gt;" style="rounded=0;whiteSpace=wrap;html=1;" vertex="1" parent="1">
          <mxGeometry x="543" y="295.88" width="120" height="60" as="geometry" />
        </mxCell>
        <mxCell id="rpgWPX5AMUhFum32eu06-4" value="注入激励电流" style="rounded=0;whiteSpace=wrap;html=1;" vertex="1" parent="1">
          <mxGeometry x="343" y="179" width="120" height="60" as="geometry" />
        </mxCell>
        <mxCell id="rpgWPX5AMUhFum32eu06-5" value="" style="html=1;shadow=0;dashed=0;align=center;verticalAlign=middle;shape=mxgraph.arrows2.arrow;dy=0.65;dx=27.6;direction=south;notch=0;" vertex="1" parent="1">
          <mxGeometry x="381.75" y="239" width="42.5" height="60" as="geometry" />
        </mxCell>
        <mxCell id="rpgWPX5AMUhFum32eu06-6" value="" style="html=1;shadow=0;dashed=0;align=center;verticalAlign=middle;shape=mxgraph.arrows2.arrow;dy=0.65;dx=27.6;direction=south;notch=0;rotation=90;" vertex="1" parent="1">
          <mxGeometry x="482.06999999999994" y="289.94" width="42.5" height="78.12" as="geometry" />
        </mxCell>
        <mxCell id="rpgWPX5AMUhFum32eu06-7" value="" style="html=1;shadow=0;dashed=0;align=center;verticalAlign=middle;shape=mxgraph.arrows2.arrow;dy=0.65;dx=27.6;direction=south;notch=0;rotation=90;" vertex="1" parent="1">
          <mxGeometry x="288" y="294.02" width="42.5" height="69.99" as="geometry" />
        </mxCell>
      </root>
    </mxGraphModel>
  </diagram>
</mxfile>
